/* XPM */
static char *_ff5ed8466084827ad4badc7bf49fec78WmKWUb4GVJEo8Fy[] = {
/* columns rows colors chars-per-pixel */
"64 64 150 2 ",
"   c None",
".  c #000000",
"X  c #0C0C0D",
"o  c #000A1F",
"O  c #121313",
"+  c #181819",
"@  c #23190B",
"#  c #321100",
"$  c #3E1200",
"%  c #3F1C00",
"&  c #311D0C",
"*  c #34230D",
"=  c #38260F",
"-  c #0A192C",
";  c #1B2A3D",
":  c #232424",
">  c #2D2D2D",
",  c #38322B",
"<  c gray19",
"1  c #452100",
"2  c #522F03",
"3  c #563105",
"4  c #4F3515",
"5  c #543B16",
"6  c #643D0D",
"7  c #653F12",
"8  c #564B1D",
"9  c #59421D",
"0  c #6C4B0F",
"q  c #654114",
"w  c #644218",
"e  c #7D4E14",
"r  c #7C591F",
"t  c #604321",
"y  c #664927",
"u  c #735020",
"i  c #3B3F44",
"p  c gray26",
"a  c #4B4B4C",
"s  c #5B5B5B",
"d  c gray40",
"f  c #6B6C6C",
"g  c #666C74",
"h  c #7B7B7B",
"j  c gray46",
"k  c #845717",
"l  c #80541A",
"z  c #885F1A",
"x  c #875A24",
"c  c #8D6525",
"v  c #AA722C",
"b  c #F67D00",
"n  c #957347",
"m  c #BC8031",
"M  c #F68400",
"N  c #F88501",
"B  c #F78905",
"V  c #FB8A03",
"C  c #F78C0C",
"Z  c #F88C0B",
"A  c #FF9C02",
"S  c #F78F11",
"D  c #F88F11",
"F  c #F79115",
"G  c #F89115",
"H  c #F7941C",
"J  c #F8951E",
"K  c #FF9D1C",
"L  c #FFA20C",
"P  c #F79622",
"I  c #F89621",
"U  c #F79825",
"Y  c #F99925",
"T  c #F79B2B",
"R  c #F89B2B",
"E  c #F79F34",
"W  c #F99E32",
"Q  c #F89E39",
"!  c #FFA026",
"~  c #FFAC26",
"^  c #FFB12A",
"/  c #F7A036",
"(  c #F8A036",
")  c #F7A53E",
"_  c #F9A33C",
"`  c #FFB430",
"'  c #FFB837",
"]  c #FFB73B",
"[  c #FFB93C",
"{  c #FFC02D",
"}  c #F7A640",
"|  c #F9A643",
" . c #F7A846",
".. c #F9A846",
"X. c #F9AA4A",
"o. c #FFB242",
"O. c #FFBC42",
"+. c #F9AE53",
"@. c #FBB057",
"#. c #FAB25C",
"$. c #FAB563",
"%. c #FBB867",
"&. c #FBB768",
"*. c #FABB6E",
"=. c #FBBD74",
"-. c #FFC343",
";. c #FFC749",
":. c #FFD64D",
">. c #FFD94F",
",. c #FFC066",
"<. c #FBC17C",
"1. c #FFD170",
"2. c #67778A",
"3. c #828282",
"4. c #8E8E8F",
"5. c #909FB2",
"6. c #92A6BD",
"7. c #A4A4A4",
"8. c #A2A7AD",
"9. c #ACABAB",
"0. c #B1B1B1",
"q. c gray73",
"w. c #C0BFBF",
"e. c #FBC584",
"r. c #FCC789",
"t. c #FBC98D",
"y. c #FBCD94",
"u. c #FCCF98",
"i. c #FCD19D",
"p. c #FCD4A3",
"a. c #FCD6A9",
"s. c #FCD9AD",
"d. c #FDDCB3",
"f. c #FDDEBA",
"g. c #FFEAA6",
"h. c #FDE1BF",
"j. c gray76",
"k. c gray80",
"l. c LightGray",
"z. c #FDE3C2",
"x. c #FDE6C9",
"c. c #FEEBD4",
"v. c #FEEEDB",
"b. c #FEF0DF",
"n. c #FEF2E3",
"m. c #FEF6EC",
"M. c #FFFAEF",
"N. c #F8F6F4",
"B. c #FFFAF4",
"V. c #FFFFFF",
/* pixels */
"                                                      X..._ _ E E _ _ _ _                                                       ",
"                                              } _ R R U Y R Y U R I I J J J I R Q                                               ",
"                                        ..W T T R ( ( R W R W W R W R R Y R R I J H P R                                         ",
"                                    _ R R E _ W ( R / ( W W R R R R R R R Y R R U R U J J R                                     ",
"                                | R W / Q / / Q ( W R R ( W R W R R R R R R R Y Y Y R U P P S Y                                 ",
"                            +.W W ( / _ ( E _ U F C J R ( R W W R R R R R Y Y R Y P U U U P T H D E                             ",
"                          | R _ _ _ _ U U _ W } #.r.z.*.S / R T W R R R R Y R R P T T P P T P P I S I                           ",
"                        E E _ _ R F S | ..T S a.V.V.V.f.Z / ! W W R R R R R R Y T T U T P P Y U I I F S E                       ",
"                      / ( _ _ ( X.<.a.m.f.F S t.V.V.V.B./ I ( W W R T R R R Y R Y Y R Y U P U P P P P J Z W                     ",
"                  $.R _ _ _ _ D u.V.V.V.n.R F +.V.V.V.V.@.G R R R W W R R R R Y R Y T Y P T U P P P P J J Z (                   ",
"                  R _ | _ _ _ I #.V.V.V.V...J U v.V.V.V.y.V R ( W W R R R Y Y R R Y T P P P U U P P I P I J N /                 ",
"                I _ | _ _ _ _ ( Y v.V.V.V.r.S C i.V.V.V.x.G I H C C B B Z C G Y R T P T T P U U P J P I I I J M X.              ",
"              R _ | _ | _ _ _ _ F d.V.V.V.z.F S =.V.V.V.B.I J X.$.=.=.e.=.#.} D b I R R U U U U P P P P P J J H M               ",
"            X.W | | ) _ ) _ _ _ F e.V.V.V.m.T Z F n.V.V.V.z.n.V.V.V.V.V.V.V.B.x.*.D N R T U P U U P P J P I I P S Z             ",
"          #.R ..| ) _ | ) | _ _ U X.V.V.V.V.$.U $.n.V.V.V.V.V.V.V.V.V.V.V.V.V.V.V.x.Q N U T P P U P P P P J J J I N R           ",
"          ( | _ | | | _ ) _ _ _ _ I c.V.V.V.m.B.V.V.V.V.V.V.V.V.V.V.V.V.V.V.V.V.V.V.V._ B T P T P P P J I I J J J J N           ",
"        X.( ..| | | ) ) | ) _ _ _ G a.V.V.V.V.V.V.V.V.V.V.V.V.V.V.V.V.V.V.V.V.V.V.V.V.N.F F U U U P P P J P P J J J C F         ",
"        ( ....| | _ ) ) ) ) _ _ _ J %.V.V.V.V.V.V.V.V.V.V.V.V.V.V.V.V.V.V.V.V.V.V.V.V.V.i.M U U U U J P P P J J J J H B  .      ",
"      X.Q | | | | | | ) _ | _ _ _ R _ B.V.V.V.V.V.V.V.V.V.V.V.V.V.V.V.V.V.V.V.V.V.V.V.V.B.P F U U U P P J P P J J J P S J       ",
"      _ | ..| | | | | ) ) ) _ _ _ _ J x.V.V.V.V.V.V.V.V.B.v.z.z.x.n.V.V.V.V.V.V.V.V.V.V.V.$.B U P P P P P P P J J J H P B       ",
"    @.( ....| | | _ | | ) ) | _ _ _ D y.V.V.V.V.V.c.p.#.( R H G F U &.B.V.V.V.V.V.V.V.V.V.p.N U U U P P P P P J J J H J S I     ",
"    | | | | | ..| | | _ ) ) ) _ _ _ I #.V.B.h.e.| I C F U R R R R Y b X.V.V.V.V.V.V.V.V.V.f.B U U U U J P J P P J J J J H C     ",
"    ( ....| | ..| | | ) ) | ) _ _ _ E | e...H G I ( _ ( ( ( W ( / ( Q N p.V.V.V.V.V.V.V.V.f.B Y U U U P U J J J J J J H J B _   ",
"  #.Q ....| ..| | | | | | _ | _ _ _ _ E K ` [ O.O.[ [ [ ] ] ] ] ` ' ] L 1.V.V.V.V.V.V.V.V.g.A ^ ^ ^ ^ ^ ^ ~ P J J J J H J S R   ",
"  +._ ....| | | ..| | _ _ | _ ) _ ( O.>.m & = = = = = q w % 3 3 1 q q 6 y d d d d d d s p t $ 3 q q q q q e I J P J J J J H F   ",
"  | ......| ..| | | | | | _ _ ) | ..x 8 9 8 4 4 4 5 4 . . 5.- ; 2.. . . . . . . . . . X 3.. 6.o . . . . . . ! ! J I J J H J C   ",
"  _ ......| ..| | | | | _ | | _ _ X.u * v :.-.O.-.-.-.r . 8.j.4.0.3.. . . . . . : j a X q.7.j.q.p . . . . k ! K P J J J H H C _ ",
"$.| ........| ..| | | | | | _ _ _ _ O.O...E ( _ ( ( ( -.c . g 9.j k.3.O . . . X 0.V.V., . 4.. f i . . . z ^ I P P J J J J H C / ",
"@.| .. .....| | | | | | | | | _ | _ _ _ _ _ ( ( ( ( / ( -.0 . f j . l.. . . O 7.V.V.V.N.> O < + @ # * r { I P P J P J J J H F T ",
"@.| X. .......| ..| | | | Q _ | _ _ _ _ _ _ _ _ / _ T S D ;.n : > > : > > > q.V.V.V.V.V.V.V.V.V.B.,.V ! P P P J P P J J H H F J ",
"#.} X...........| | | | | | _ _ | _ _ _ _ Q ( ( _ R X.e.s.M.V.V.V.V.V.V.V.V.V.V.V.V.V.V.V.V.V.V.V.V.@.V U P J P P J J J J H H P ",
"+. .X.......| | ..| | | | | | _ ) _ _ _ _ _ _ ( / F *.V.V.V.V.V.V.V.V.V.V.V.V.V.V.V.V.V.V.V.V.V.V.V.V.J G P P P P P J J J H H H ",
"X.X.X...........| ..| | | | | _ | _ _ _ _ ( _ ( _ T _ B.V.V.V.V.V.V.V.V.V.V.V.V.V.V.V.V.V.V.V.V.V.V.V.t.M P P P J P J J J J H J ",
"#.| X.........| ....| | | | _ | _ _ _ _ _ _ _ Q / / F z.V.V.V.V.V.V.B.c.z.h.v.V.V.V.V.V.V.V.V.V.V.V.V.m.H H P P J P P J J J H P ",
"#.} X.X.........| | | | | | | _ _ | _ _ _ _ _ _ _ _ C i.V.V.n.a.*.+.| P F D Y _ y.V.V.V.V.V.V.V.V.V.V.V. .C P P P P J P J H F P ",
"#.| ....X.....| | ....| | _ | _ | _ _ _ _ _ _ Q ( E R ..e.+.T S C F I R R R R S M $.V.V.V.V.V.V.V.V.V.V.e.M P J P P J J J H F T ",
"$.| ....X...........| ..Q | | _ _ _ ) _ _ _ _ _ _ ( _ U D J R E ( W ( ( W W R W T M s.V.V.V.V.V.V.V.V.V.s.N P P P J P I J J S / ",
"  | X.X.........| | | | | | | | | _ | _ _ _ E _ ( _ / _ ( ( ( E ( W W R W W W W T Z +.V.V.V.V.V.V.V.V.V.f.B P P P P P J J J C ) ",
"  | X.X.........| ....| | | | | _ _ ) ) _ _ ( _ _ ( _ / ( ( _ E W W W ( W W R W R J E V.V.V.V.V.V.V.V.V.f.B P P P J J P P J C   ",
"  +.| X...........| ..| | | | _ | | ) _ _ _ _ _ _ ( _ ( Q E E ( / W W ( T W W R W Z X.V.V.V.V.V.V.V.V.V.s.N P P P P P P J J F   ",
"  $.} ..X...X.....| | | ..| | | ) _ ) _ _ _ _ _ ( _ E E ( ( E E W / W W / ! W R R N d.V.V.V.V.V.V.V.V.V.e.M U P P J J P J G !   ",
"    | X.X...X.....| ..| | | | _ ) | ) ) _ _ _ _ _ _ ( _ _ E E _ / W E W ( R / P M <.V.V.V.V.V.V.V.V.V.V.E C U U P P P P P C )   ",
"    ....X.........| ..| | | | | | ) ) ) _ _ _ _ _ ( ( _ ( E ( E E E W E ( Y Z S r.V.V.V.V.V.V.V.V.V.V.d.M U U I P P J P P D     ",
"    #._ X.X...X.....| ....| | | ) ) | ) _ _ _ _ _ _ ( / ( ( ( ( / / W F C F $.c.V.V.V.V.V.V.V.V.V.V.V.U C U U U U J U J F I     ",
"      | X.X.X.| ..| | | ..| _ | | ) | ) _ _ _ _ _ Q ( _ _ / ( U F C I  .<.c.V.V.V.V.V.V.V.V.V.V.V.V.+.N T T U I P I I I C @.    ",
"      X.} X.X.X.......| | ..| | ) | _ ) ) _ _ _ _ _ _ R F S F _ $.y.c.V.V.V.V.V.V.V.V.V.V.V.V.V.N...N U U U U U P P J H F       ",
"        Q X... .......| | ..| | | ) ) ) _ _ _ _ _ _ W / $.e.d.B.V.V.V.V.V.V.V.V.V.V.V.V.V.V.V.s.W N R U T U U P U P P S |       ",
"        #._ X.| ........| | | | | | | _ | _ _ _ _ R ..m.V.V.V.V.V.V.V.V.V.V.V.V.V.V.V.V.V.z.$.N C R Y R U U U U U P F H         ",
"          ( ........| ..| | | | | ) ) _ | _ _ _ _ R | V.V.V.V.V.V.V.V.V.V.V.V.V.V.V.V.d.#.B V Y T R R Y P T P P P T B           ",
"          @._ ..........| ....} | | | ) ) ) _ _ _ _ H z.V.V.V.V.V.V.V.V.V.V.V.m.f.=.} B B R R R U R R U T P T P T Z R           ",
"            .._ X.X...| ..| | | | ) | _ ) ) _ _ _ _ G t.V.V.V.V.V.V.V.V.V.V.V.$.M Z G W W R R R R T R Y P T U U H B             ",
"              W  . ...| | | | | | | | _ | ) _ _ _ _ I @.V.V.V.V.v.p.$.v.V.V.V.<.N W W R W R R R Y Y Y Y T T U U b               ",
"                ( ..........| | | | _ | | _ | _ _ _ W W m.V.V.V.<.b b d.V.V.V.f.C R W R R R R R R T T Y Y Y R B _               ",
"                X.R ....| | ..| | | | _ _ ) _ _ _ _ _ G s.V.V.V.s.C S *.V.V.V.m.R Y W W W R R R R Y R Y Y T S E                 ",
"                  %.Q | | ..| | | | | ) | _ _ _ _ _ _ G =.V.V.V.B.E F } V.V.V.V.$.C W R R R R R R Y R Y R F P                   ",
"                    @.Q | ..| | | | | | _ | | _ _ _ _ I X.V.V.V.V.&.S P c.V.V.V.f.B W W W R R R R R R T H R                     ",
"                        _ _ ....| | | | _ _ | _ _ _ _ E R n.V.V.V.t.S Z y.V.V.m.t.G / ( R R R R R R Y G (                       ",
"                          | _ | | | | | _ | _ _ _ _ _ _ F i.V.V.V.n.F I +.y.$.E H ( R R R R R R R J J                           ",
"                            .._ _ | | | | _ | | _ _ _ _ G *.V.V.c.u.W / T C F U ( R R ( ( R W R J (                             ",
"                                | _ _ | | _ _ _ _ _ _ _ E ..=.+.T F Q Q E E E W ! ( ( R R R I R                                 ",
"                                  #._ _ _ _ _ _ _ _ _ _ _ W F J T _ Q E Q E E W ( ( R R Y R _                                   ",
"                                        .._ ( _ _ _ _ _ _ _ _ _ _ ( / E / E E W R Y Y ( ..                                      ",
"                                            +..._ ( Q W W ( ( / / W W W T W U W _ ..                                            ",
"                                                    +.X...| | _ _ _ _ | ....                                                    "
};
