/* XPM */
static char *_fe79e0cf1ef4fa4c9f095f19a01e5a0ZqPT3PFWxrOBDYKD[] = {
/* columns rows colors chars-per-pixel */
"16 16 168 2 ",
"   c None",
".  c #0C0702",
"X  c #110000",
"o  c #1D0D00",
"O  c #553A18",
"+  c #48423D",
"@  c #656565",
"#  c #A35900",
"$  c #B76C0E",
"%  c #A96512",
"&  c #F56C00",
"*  c #ED7E00",
"=  c #F68300",
"-  c #F68500",
";  c #F78500",
":  c #F08504",
">  c #F68907",
",  c #F68A07",
"<  c #F78C07",
"1  c #F78A08",
"2  c #F68A09",
"3  c #F78B0B",
"4  c #F68C0B",
"5  c #F68B0C",
"6  c #F68B0D",
"7  c #F78D0D",
"8  c #F68D0E",
"9  c #F68E0E",
"0  c #F88C0B",
"q  c #FF9208",
"w  c #E58818",
"e  c #F89013",
"r  c #F7931A",
"t  c #F7921B",
"y  c #F7931B",
"u  c #F7941A",
"i  c #F6941B",
"p  c #F7951F",
"a  c #F89218",
"s  c #F8931B",
"d  c #F8941B",
"f  c #FE961A",
"g  c #F9941C",
"h  c #F8951E",
"j  c #F8951F",
"k  c #FFA61C",
"l  c #E98F22",
"z  c #F79521",
"x  c #F69723",
"c  c #F79723",
"v  c #F79724",
"b  c #F89520",
"n  c #F89721",
"m  c #F79826",
"M  c #FA9A21",
"N  c #F89825",
"B  c #F89826",
"V  c #F79B2B",
"C  c #F89A29",
"Z  c #F89B2B",
"A  c #F89C2D",
"S  c #F99D2D",
"D  c #F89D2F",
"F  c #FC9E2D",
"G  c #E09132",
"H  c #F39E37",
"J  c #F99D30",
"K  c #F89E31",
"L  c #F89E32",
"P  c #F99E32",
"I  c #F89F33",
"U  c #F99F34",
"Y  c #FFA32B",
"T  c #F9A135",
"R  c #F8A036",
"E  c #F8A136",
"W  c #F4A13C",
"Q  c #F7A43F",
"!  c #F8A138",
"~  c #F9A138",
"^  c #F8A23A",
"/  c #F8A23B",
"(  c #F8A33B",
")  c #F9A33B",
"_  c #F9A33C",
"`  c #F8A33D",
"'  c #F9A33D",
"]  c #F9A43E",
"[  c #F8A53E",
"{  c #F9A43F",
"}  c #F9A53F",
"|  c #FAA53E",
" . c #AF9679",
".. c #D49C59",
"X. c #F8A540",
"o. c #F9A540",
"O. c #F9A541",
"+. c #F9A542",
"@. c #F9A642",
"#. c #F9A643",
"$. c #FAA643",
"%. c #F9A644",
"&. c #F9A744",
"*. c #F9A745",
"=. c #FAA644",
"-. c #F9A845",
";. c #F9A846",
":. c #FCAD46",
">. c #F9A848",
",. c #F9A948",
"<. c #F9A94A",
"1. c #F9AC4E",
"2. c #F9AC4F",
"3. c #FFB94F",
"4. c #F9AD50",
"5. c #F9AD52",
"6. c #F9AD53",
"7. c #F8AE53",
"8. c #F9AE54",
"9. c #F9AF55",
"0. c #FFB350",
"q. c #F8B058",
"w. c #FAB35E",
"e. c #FAB664",
"r. c #FAB665",
"t. c #FAB666",
"y. c #FAB766",
"u. c #FAB769",
"i. c #FAB868",
"p. c #FAB869",
"a. c #FABB71",
"s. c #FBBC71",
"d. c #F0BA79",
"f. c #FAC077",
"g. c #DBB78B",
"h. c #FBC685",
"j. c #FAC88A",
"k. c #FBCD95",
"l. c #FDD7AB",
"z. c #FCD9AF",
"x. c #FDDFBB",
"c. c #FCDFBC",
"v. c #FFE9A9",
"b. c #FFF4BB",
"n. c #86A6CC",
"m. c #99AFC8",
"M. c #BEC6D0",
"N. c #C5C4C4",
"B. c #FDE2C1",
"V. c #FDE5C7",
"C. c #FDE6CB",
"Z. c #FDE8CD",
"A. c #FEE9D1",
"S. c #FEECD7",
"D. c #FDEEDB",
"F. c #FEF0DF",
"G. c #E0E3E6",
"H. c #F7EEE5",
"J. c #FEF3E5",
"K. c #FFF8E6",
"L. c #FFFFEA",
"P. c #FFFAF4",
"I. c #F5FDFF",
"U. c #FFFFF9",
"Y. c #FFFDFA",
"T. c #FFFDFB",
"R. c #FFFDFC",
"E. c white",
/* pixels */
"          ~ u A A P ^           ",
"      %.V #.f.V b a r u V       ",
"    9.a B.k.J.2.3 a 1 z , ~     ",
"  r.N r C.C.C.U.J.C.a.3 z ; 6.  ",
"  ~ ~ d s.E.E.U.E.E.E.0.q f 3   ",
"r.P #.T ,.g...w H H.G.d.* l 1 ~ ",
"6._ #.:.G $ # O o . @ + X % k m ",
",.-.#.#.W Y 3.N.n.m.I.M. .: M u ",
",.-.@.{ { p u.L.b.v.K.E.E.A 7 a ",
"9.{ -.#.{ Q R m 7 & 9.E.E.q.= N ",
"r.E -.@.{ @.D 1 7 A x.E.E.v ; #.",
"  _ { #.{ T %.h.c.E.E.S.%.3 7   ",
"  i.A %.#.b r.E.E.U.i.g 3 3 4.  ",
"    w.P { E T P.z.D.P 7 e ^     ",
"      %._ E g l.j.2._ a U       ",
"          6.%.V V p _           "
};
