/* XPM */
static char *b27ad3044ed84149b6b8a74ba78cd1b6LyNhxR0NGsGeZRPZ[] = {
/* columns rows colors chars-per-pixel */
"32 32 120 2 ",
"   c None",
".  c black",
"X  c #11100E",
"o  c #00091A",
"O  c #161616",
"+  c #171B1F",
"@  c #1E1E1E",
"#  c #271000",
"$  c #2A1A07",
"%  c #2A1A08",
"&  c #391F06",
"*  c #33200A",
"=  c #34291C",
"-  c gray17",
";  c #35302C",
":  c #313232",
">  c #3B3935",
",  c #41301A",
"<  c #76480C",
"1  c #6B4713",
"2  c #755219",
"3  c #795922",
"4  c #624B31",
"5  c #334152",
"6  c gray31",
"7  c #5F5F5D",
"8  c #7C7C7D",
"9  c #A95B00",
"0  c #9F6B29",
"q  c #A77628",
"w  c #B87B20",
"e  c #DF7C09",
"r  c #F67B00",
"t  c #86725B",
"y  c #837C74",
"u  c #D0831A",
"i  c #F68400",
"p  c #F88700",
"a  c #F68905",
"s  c #FF8E00",
"d  c #F68C0C",
"f  c #F88D0D",
"g  c #EB8912",
"h  c #F78E11",
"j  c #F88F12",
"k  c #F79116",
"l  c #F99115",
"z  c #F7931B",
"x  c #F8941D",
"c  c #FF991E",
"v  c #DF8721",
"b  c #CE8832",
"n  c #F79621",
"m  c #F89621",
"M  c #F79826",
"N  c #FB9A24",
"B  c #F79A2B",
"V  c #F89B2B",
"C  c #F79F34",
"Z  c #F89E32",
"A  c #FEA325",
"S  c #FFAD26",
"D  c #F9A036",
"F  c #F7A43D",
"G  c #F9A33C",
"H  c #FBAA3D",
"J  c #FFB931",
"K  c #968065",
"L  c #F9A642",
"P  c #F9A846",
"I  c #F7AA4E",
"U  c #F9AA4C",
"Y  c #FFB643",
"T  c #FFB945",
"R  c #F9AE53",
"E  c #F9B057",
"W  c #FBB35B",
"Q  c #FAB562",
"!  c #FAB866",
"~  c #FAB96A",
"^  c #FABF76",
"/  c #FFC963",
"(  c #FBC17D",
")  c #4F6581",
"_  c #788494",
"`  c gray51",
"'  c #939393",
"]  c gray62",
"[  c #FCC684",
"{  c #FBC58B",
"}  c #FBC98C",
"|  c #FBCC94",
" . c #FFD193",
".. c #FCD19D",
"X. c #FCD5A5",
"o. c #FCD7A9",
"O. c #FCD9AD",
"+. c #FCDBB2",
"@. c #FDDEB9",
"#. c #FDE0BD",
"$. c #F2DCC1",
"%. c #FDE3C4",
"&. c #FDE6CB",
"*. c #FFEFCA",
"=. c #FDE7D0",
"-. c #FEEDD4",
";. c #DEE2E8",
":. c #FEF3E4",
">. c #FEF4E9",
",. c #FEF5EB",
"<. c #FFFFEF",
"1. c #FFFEEE",
"2. c #FEF8F1",
"3. c #FFFBF6",
"4. c #FFFCF6",
"5. c #FFFBF5",
"6. c AliceBlue",
"7. c #FFFFFD",
"8. c white",
"9. c #FFFFFF",
/* pixels */
"                        P L D Z V Z D F                         ",
"                  P G B M m V V V M m x z M G                   ",
"                D n V B x V V D V V V V B n k x L               ",
"            L Z n D B R %.@.x V V V N V M B M x h M             ",
"          Z V M } >.Q L 8.8.G x V V M V M M M M n h h           ",
"        L Z F l @.8.+.a :.8.! r h k f a j V M n n n f j         ",
"      U V L F x ~ 8.2.r ( 8.#.( +.@.+.[ G i M M n n M i B       ",
"      V F L G Z G 3.8...%.8.8.8.8.8.8.8.3.Q i V n n n m i R     ",
"    L G L L G C m %.8.8.8.8.8.8.8.8.8.8.8.8.G d M m m x l f     ",
"  ~ Z L L G G L j { 8.8.8.8.>.=.-.8.8.8.8.8.X.i n n m m m a F   ",
"  U G L L L L G n Q 8.-. .W D c c [ 8.8.8.8.:.c c N N m x k z   ",
"  G L L L L H G G T U v e x c g l s *.8.8.8.$.a A A N x x x d   ",
"~ G P P L L G L H q < 2 3 * ; t , # = - O : y 4 * $ $ n N x d F ",
"R G L P L L L H G 0 b D H w X ) _ o . . ` 7 + 5 . . 1 A c x k M ",
"U L P L L L L L G Y L G D J u > 8 6 @ ] 8.8.8 ' K 9 S m n x z x ",
"U U P P L L L G L C G G c { <.4.;.6.8.8.8.8.8.8.8./ a n n x z z ",
"U U U L L L L G L L G G d o.8.8.8.7.<.4.8.8.8.8.8.:.f k n x z x ",
"R L P L L L L L G L C C M W +.^ U D M M { 8.8.8.8.8.R a n n z n ",
"R L U L L P L L L G G G G V m j z M M l i @.8.8.8.8.^ i n n j B ",
"~ G U P P L L L G G L C G C C C D Z Z D i | 8.8.8.8.^ i n n f G ",
"  L U L L L L L L G G G L C C C Z D V i Z >.8.8.8.8.P d n M f   ",
"  U L U U L L L L F G G C C C Z k a l Q >.8.8.8.8.@.i n n k x   ",
"  Q C U L L L L G L G G L M j Z W } &.8.8.8.8.8.&.k h B n d L   ",
"    L L U L L L L G L G B ~ +.:.8.8.8.8.8.8.,.{ k f B M x h     ",
"      Z U L P L L L G G j X.8.8.8.8.8.2.&.[ Z p x B M B a R     ",
"      R Z P L L L G G G N W 8.8.%.-.8.+.p a l V B B V d M       ",
"        G G P L L L L G C V >.8.C G 8.:.m M V V M V l k         ",
"          F G L L L F G C z O.8.| d 8.8.~ f V V V z k           ",
"            P G G L L L L j ^ 8.3.d | O.U m V V z V             ",
"              R L D G G G V R +.[ C z h M Z M N L               ",
"                  R F G Z C Z l z C Z M N Z F                   ",
"                        R U L C G C F P                         "
};
